<svg width="160" height="160" viewBox="0 0 160 160" fill="none" xmlns="http://www.w3.org/2000/svg" role="img" aria-labelledby="title desc">
  <title id="title">Ashish Sharma AS logo</title>
  <desc id="desc">A premium blue AS monogram with code brackets for Ashish Sharma.</desc>
  <defs>
    <linearGradient id="mark" x1="20" y1="12" x2="140" y2="148" gradientUnits="userSpaceOnUse">
      <stop stop-color="#60A5FA"/>
      <stop offset=".48" stop-color="#2563EB"/>
      <stop offset="1" stop-color="#123B84"/>
    </linearGradient>
    <linearGradient id="shine" x1="32" y1="20" x2="124" y2="112" gradientUnits="userSpaceOnUse">
      <stop stop-color="white" stop-opacity=".4"/>
      <stop offset="1" stop-color="white" stop-opacity="0"/>
    </linearGradient>
    <filter id="shadow" x="0" y="0" width="160" height="160" filterUnits="userSpaceOnUse">
      <feDropShadow dx="0" dy="8" stdDeviation="7" flood-color="#1D4ED8" flood-opacity=".26"/>
    </filter>
  </defs>
  <g filter="url(#shadow)">
    <rect x="15" y="15" width="130" height="130" rx="36" fill="url(#mark)"/>
    <path d="M15 51C31 27 56 15 84 15C111 15 132 28 145 48V15H15V51Z" fill="url(#shine)"/>
    <path d="M26 68L42 52M134 68L118 52" stroke="#BFDBFE" stroke-width="4" stroke-linecap="round"/>
    <path d="M38 108L53 53H66L81 108H68L65 94H48L45 108H38ZM51 83H62L56.5 62L51 83Z" fill="white"/>
    <text x="79" y="108" fill="white" font-family="Arial, sans-serif" font-size="57" font-weight="800">S</text>
    <path d="M46 121H114" stroke="#DBEAFE" stroke-width="3" stroke-linecap="round"/>
    <circle cx="128" cy="32" r="5" fill="#DBEAFE"/>
  </g>
</svg>
